<svg viewBox="1 19 62 37" xmlns="http://www.w3.org/2000/svg" role="img" aria-label="Axi">
  <defs>
    <g id="m-gill">
      <ellipse cx="0" cy="-8.5" rx="3.8" ry="10.6" fill="#fe8faf" stroke="#241019" stroke-width="0.9"/>
      <path d="M0 -16.2 Q-3.2 -12 -2.6 -7.2 Q0 -8.6 2.6 -7.2 Q3.2 -12 0 -16.2 Z" fill="#00D4AA" stroke="#241019" stroke-width="0.42" stroke-linejoin="round"/>
    </g>
  </defs>
  <use href="#m-gill" transform="translate(23,32) rotate(-56) scale(0.94)"/>
  <use href="#m-gill" transform="translate(20,37) rotate(-79) scale(0.95)"/>
  <use href="#m-gill" transform="translate(22,43) rotate(-95) scale(0.9)"/>
  <use href="#m-gill" transform="translate(41,32) rotate(56) scale(0.94)"/>
  <use href="#m-gill" transform="translate(44,37) rotate(79) scale(0.95)"/>
  <use href="#m-gill" transform="translate(42,43) rotate(95) scale(0.9)"/>
  <ellipse cx="32" cy="38" rx="15.5" ry="13.5" fill="#fe8faf" stroke="#241019" stroke-width="0.9"/>
  <circle cx="21.5" cy="42" r="2.2" fill="#FF4D88" opacity="0.5"/>
  <circle cx="42.5" cy="42" r="2.2" fill="#FF4D88" opacity="0.5"/>
  <circle cx="26" cy="38" r="2.6" fill="#14131F"/><circle cx="26.9" cy="37.2" r="0.9" fill="#FFFFFF"/>
  <circle cx="38" cy="38" r="2.6" fill="#14131F"/><circle cx="38.9" cy="37.2" r="0.9" fill="#FFFFFF"/>
  <path d="M26 43 Q32 48 38 43" stroke="#14131F" stroke-width="1" stroke-linecap="round" fill="none"/>
</svg>
